<svg width="26" height="23" viewBox="0 0 26 23" fill="none" xmlns="http://www.w3.org/2000/svg">
<path d="M21.6881 0H3.38267L0 9.74432V22.2727H4.17614V19.4886H20.8807V22.2727H25.0568V9.74432L21.6881 0ZM4.87216 15.3125C3.71676 15.3125 2.78409 14.3798 2.78409 13.2244C2.78409 12.069 3.71676 11.1364 4.87216 11.1364C6.02756 11.1364 6.96023 12.069 6.96023 13.2244C6.96023 14.3798 6.02756 15.3125 4.87216 15.3125ZM20.1847 15.3125C19.0293 15.3125 18.0966 14.3798 18.0966 13.2244C18.0966 12.069 19.0293 11.1364 20.1847 11.1364C21.3401 11.1364 22.2727 12.069 22.2727 13.2244C22.2727 14.3798 21.3401 15.3125 20.1847 15.3125ZM2.78409 8.35227L4.87216 2.08807H20.1847L22.2727 8.35227H2.78409Z" fill="black"/>
</svg>
