<svg width="29" height="28" viewBox="0 0 29 28" fill="none" xmlns="http://www.w3.org/2000/svg">
<path d="M14.5 6.22222V0H0V28H29V6.22222H14.5ZM5.8 24.8889H2.9V21.7778H5.8V24.8889ZM5.8 18.6667H2.9V15.5556H5.8V18.6667ZM5.8 12.4444H2.9V9.33333H5.8V12.4444ZM5.8 6.22222H2.9V3.11111H5.8V6.22222ZM11.6 24.8889H8.7V21.7778H11.6V24.8889ZM11.6 18.6667H8.7V15.5556H11.6V18.6667ZM11.6 12.4444H8.7V9.33333H11.6V12.4444ZM11.6 6.22222H8.7V3.11111H11.6V6.22222ZM26.1 24.8889H14.5V21.7778H17.4V18.6667H14.5V15.5556H17.4V12.4444H14.5V9.33333H26.1V24.8889ZM23.2 12.4444H20.3V15.5556H23.2V12.4444ZM23.2 18.6667H20.3V21.7778H23.2V18.6667Z" fill="white"/>
</svg>
