<svg width="22" height="20" viewBox="0 0 22 20" fill="none" xmlns="http://www.w3.org/2000/svg">
<path d="M11 4.49995C13.76 4.49995 16 6.73995 16 9.49995C16 10.01 15.9 10.5 15.76 10.96L18.82 14.02C20.21 12.79 21.31 11.25 22 9.48995C20.27 5.10995 16 1.99995 11 1.99995C9.73 1.99995 8.51 2.19995 7.36 2.56995L9.53 4.73995C10 4.59995 10.49 4.49995 11 4.49995ZM2.42 0.449951L1.01 1.86995L3.69 4.54995C2.06 5.82995 0.77 7.52995 0 9.49995C1.73 13.89 6 17 11 17C12.52 17 13.97 16.7 15.31 16.18L18.74 19.61L20.15 18.2L2.42 0.449951ZM11 14.5C8.24 14.5 6 12.26 6 9.49995C6 8.72995 6.18 7.99995 6.49 7.35995L8.06 8.92995C8.03 9.10995 8 9.29995 8 9.49995C8 11.16 9.34 12.5 11 12.5C11.2 12.5 11.38 12.47 11.57 12.43L13.14 14C12.49 14.32 11.77 14.5 11 14.5ZM13.97 9.16995C13.82 7.76995 12.72 6.67995 11.33 6.52995L13.97 9.16995Z" fill="#000000"/>
</svg>
