<svg width="176" height="32" viewBox="0 0 176 32" fill="none" xmlns="http://www.w3.org/2000/svg">
<path d="M13.6119 24.7584C13.1026 25.1751 12.4775 25.4876 11.7367 25.6959C11.0191 25.9043 10.2552 26.0084 9.44496 26.0084C7.40781 26.0084 5.83365 25.476 4.72248 24.4111C3.61131 23.3463 3.05572 21.7952 3.05572 19.7581V10.834H0V7.36158H3.05572V3.12524H7.39623V7.36158H12.3618V10.834H7.39623V19.6539C7.39623 20.5567 7.61615 21.2512 8.05599 21.7374C8.49583 22.2004 9.13244 22.4319 9.96582 22.4319C10.9381 22.4319 11.7483 22.1772 12.3965 21.6679L13.6119 24.7584Z" fill="#313131"/>
<path d="M21.3143 9.66164C22.5644 7.71709 24.7636 6.74481 27.9119 6.74481V10.877C27.5415 10.8075 27.2058 10.7728 26.9049 10.7728C25.215 10.7728 23.8955 11.2705 22.9463 12.2659C21.9972 13.2382 21.5226 14.6503 21.5226 16.5023V25.4958H17.1821V6.95316H21.3143V9.66164Z" fill="#313131"/>
<path d="M38.5761 7.01428C41.3077 7.01428 43.3912 7.67404 44.8264 8.99356C46.2848 10.29 47.014 12.2577 47.014 14.8967V25.7653H42.9166V23.5083C42.3842 24.3185 41.6202 24.9435 40.6248 25.3834C39.6525 25.8001 38.4719 26.0084 37.0829 26.0084C35.694 26.0084 34.4786 25.7769 33.4369 25.3139C32.3952 24.8278 31.585 24.168 31.0062 23.3346C30.4506 22.4781 30.1729 21.5174 30.1729 20.4525C30.1729 18.7858 30.7863 17.4547 32.0132 16.4593C33.2633 15.4407 35.2194 14.9314 37.8816 14.9314H42.6735V14.6536C42.6735 13.3572 42.28 12.3618 41.4929 11.6673C40.729 10.9729 39.5831 10.6256 38.0552 10.6256C37.0135 10.6256 35.9834 10.7877 34.9648 11.1118C33.9694 11.4358 33.1244 11.8873 32.4299 12.466L30.7284 9.30607C31.7007 8.56529 32.8698 7.99813 34.2356 7.60459C35.6014 7.21105 37.0482 7.01428 38.5761 7.01428ZM37.9858 22.8485C39.0738 22.8485 40.0345 22.6054 40.8679 22.1193C41.7244 21.61 42.3263 20.8924 42.6735 19.9664V17.8135H38.1941C35.694 17.8135 34.4439 18.6353 34.4439 20.2789C34.4439 21.066 34.7564 21.691 35.3815 22.154C36.0065 22.617 36.8746 22.8485 37.9858 22.8485Z" fill="#747272"/>
<path d="M60.1538 17.8135L56.9245 20.8692V25.7653H52.584V0H56.9245V15.5564L65.918 7.22261H71.1267L63.3832 15.0008L71.8559 25.7653H66.5778L60.1538 17.8135Z" fill="#313131"/>
<path d="M82.3878 26.0084C80.4664 26.0084 78.7418 25.6033 77.2139 24.7931C75.6861 23.9828 74.4939 22.8601 73.6373 21.4248C72.7808 19.9664 72.3525 18.3228 72.3525 16.494C72.3525 14.6652 72.7808 13.0332 73.6373 11.5979C74.4939 10.1626 75.6745 9.03986 77.1792 8.22963C78.7071 7.4194 80.4433 7.01428 82.3878 7.01428C84.2166 7.01428 85.8139 7.38467 87.1797 8.12545C88.5687 8.86624 89.6104 9.93111 90.3049 11.3201L86.9714 13.2647C86.439 12.4081 85.7676 11.7715 84.9574 11.3548C84.1703 10.915 83.3022 10.6951 82.3531 10.6951C80.7326 10.6951 79.39 11.2275 78.3251 12.2924C77.2602 13.3341 76.7278 14.7346 76.7278 16.494C76.7278 18.2533 77.2486 19.6655 78.2904 20.7303C79.3552 21.7721 80.7095 22.2929 82.3531 22.2929C83.3022 22.2929 84.1703 22.0846 84.9574 21.6679C85.7676 21.228 86.439 20.5799 86.9714 19.7233L90.3049 21.6679C89.5873 23.0569 88.534 24.1333 87.145 24.8972C85.7792 25.638 84.1935 26.0084 82.3878 26.0084Z" fill="#313131"/>
<path d="M102.332 26.0084C99.5999 26.0084 97.5165 25.3486 96.0812 24.0291C94.6228 22.7327 93.8936 20.765 93.8936 18.126V7.25734H97.991V9.51441C98.5235 8.70418 99.2874 8.07915 100.283 7.63931C101.255 7.22262 102.436 7.01428 103.825 7.01428C105.214 7.01428 106.429 7.24577 107.471 7.70876C108.513 8.1949 109.323 8.85465 109.901 9.68803C110.457 10.5446 110.735 11.5053 110.735 12.5701C110.735 14.2369 110.121 15.568 108.894 16.5634C107.644 17.582 105.688 18.0913 103.026 18.0913H98.2341V18.3691C98.2341 19.6654 98.6276 20.6608 99.4147 21.3553C100.179 22.0498 101.325 22.3971 102.852 22.3971C103.894 22.3971 104.924 22.235 105.943 21.9109C106.938 21.5868 107.783 21.1354 108.478 20.5567L110.179 23.7166C109.207 24.4574 108.038 25.0245 106.672 25.4181C105.306 25.8116 103.859 26.0084 102.332 26.0084ZM102.922 10.1742C101.834 10.1742 100.873 10.4172 100.04 10.9034C99.1832 11.4127 98.5813 12.1303 98.2341 13.0563V15.2092H102.714C105.214 15.2092 106.464 14.3874 106.464 12.7438C106.464 11.9567 106.151 11.3316 105.526 10.8687C104.901 10.4057 104.033 10.1742 102.922 10.1742Z" fill="#747272"/>
<path d="M119.282 9.93111C120.532 7.98656 122.731 7.01428 125.879 7.01428V11.1465C125.509 11.077 125.173 11.0423 124.872 11.0423C123.182 11.0423 121.863 11.54 120.914 12.5354C119.964 13.5077 119.49 14.9198 119.49 16.7718V25.7653H115.149V7.22263H119.282V9.93111Z" fill="#313131"/>
<path d="M175.398 30.1022H92.083V31.6742H175.398V30.1022Z" fill="#8B8B8B"/>
<path d="M159.459 25.1126C159.131 24.9478 159.077 24.4533 159.077 24.4533V22.5302C159.077 19.8929 155.907 19.2336 154.704 19.0688C154.518 19.0435 154.351 19.0138 154.2 18.9896C153.555 18.8742 152.951 18.5886 152.451 18.1622C151.017 16.9386 147.517 13.9545 146.998 13.5194C146.424 13.0386 145.599 13.021 145.402 13.0238C145.365 13.0238 145.328 13.0238 145.293 13.0238C144.804 13.0161 141.763 12.9743 139.458 13.0238C136.943 13.0787 133.118 16.7051 133.118 16.7051C132.148 17.612 131.297 18.6389 130.584 19.7611C130.203 20.3605 130 21.0575 130 21.7693V25.1676C130 26.5588 130.847 27.2368 131.589 27.5637C132.047 27.762 132.541 27.8629 133.039 27.8598H140.07H144.702C144.702 27.8598 156.672 28.1346 158.53 27.9148C160.388 27.695 160.224 25.5522 159.459 25.1126Z" fill="white"/>
<path d="M159.459 25.1126C159.131 24.9478 159.077 24.4533 159.077 24.4533V22.5302C159.077 19.8929 155.907 19.2336 154.704 19.0688C154.518 19.0435 154.351 19.0138 154.2 18.9896C153.555 18.8742 152.951 18.5886 152.451 18.1622C151.017 16.9386 147.517 13.9545 146.998 13.5194C146.424 13.0386 145.599 13.021 145.402 13.0238C145.365 13.0238 145.328 13.0238 145.293 13.0238C144.804 13.0161 141.763 12.9743 139.458 13.0238C136.943 13.0787 133.118 16.7051 133.118 16.7051C132.148 17.612 131.297 18.6389 130.584 19.7611C130.203 20.3605 130 21.0575 130 21.7693V25.1676C130 26.5588 130.847 27.2368 131.589 27.5637C132.047 27.762 132.541 27.8629 133.039 27.8598H140.07H144.702C144.702 27.8598 156.672 28.1346 158.53 27.9148C160.388 27.695 160.224 25.5522 159.459 25.1126ZM141.587 19.3984H133.389C133.389 19.3984 133.498 18.4644 134.646 17.4204C135.871 16.3062 138.362 14.4534 141.587 14.5084V19.3984ZM143.227 19.3984L143.117 14.5084C143.117 14.5084 146.615 13.7941 151.425 19.3984H143.227Z" fill="#898989"/>
<path d="M137.342 28.6293C138.269 28.6293 139.02 27.8779 139.02 26.951C139.02 26.0241 138.269 25.2727 137.342 25.2727C136.415 25.2727 135.664 26.0241 135.664 26.951C135.664 27.8779 136.415 28.6293 137.342 28.6293Z" fill="white"/>
<path d="M151.399 28.6293C152.326 28.6293 153.077 27.8779 153.077 26.951C153.077 26.0241 152.326 25.2727 151.399 25.2727C150.472 25.2727 149.721 26.0241 149.721 26.951C149.721 27.8779 150.472 28.6293 151.399 28.6293Z" fill="white"/>
<path d="M137.342 28.6293C138.269 28.6293 139.02 27.8779 139.02 26.951C139.02 26.0241 138.269 25.2727 137.342 25.2727C136.415 25.2727 135.664 26.0241 135.664 26.951C135.664 27.8779 136.415 28.6293 137.342 28.6293Z" fill="white"/>
<path d="M137.335 23.5944C135.485 23.5944 133.986 25.094 133.986 26.9439C133.986 28.7939 135.485 30.2935 137.335 30.2935C139.185 30.2935 140.685 28.7939 140.685 26.9439C140.685 25.094 139.185 23.5944 137.335 23.5944ZM137.335 28.5831C137.011 28.5831 136.694 28.4869 136.425 28.3068C136.155 28.1267 135.945 27.8707 135.821 27.5712C135.697 27.2717 135.664 26.9421 135.728 26.6242C135.791 26.3062 135.947 26.0141 136.176 25.7849C136.406 25.5557 136.698 25.3996 137.016 25.3363C137.334 25.2731 137.663 25.3055 137.963 25.4296C138.262 25.5536 138.518 25.7637 138.698 26.0333C138.878 26.3028 138.974 26.6197 138.974 26.9439C138.974 27.3787 138.802 27.7956 138.494 28.103C138.187 28.4104 137.77 28.5831 137.335 28.5831Z" fill="#2D2D2D"/>
<path d="M151.399 23.6015C149.549 23.6015 148.05 25.1011 148.05 26.951C148.05 28.801 149.549 30.3006 151.399 30.3006C153.249 30.3006 154.749 28.801 154.749 26.951C154.749 25.1011 153.249 23.6015 151.399 23.6015ZM151.399 28.5902C151.075 28.5902 150.758 28.494 150.489 28.3139C150.219 28.1338 150.009 27.8778 149.885 27.5783C149.761 27.2788 149.728 26.9492 149.792 26.6313C149.855 26.3133 150.011 26.0212 150.24 25.792C150.47 25.5628 150.762 25.4067 151.08 25.3434C151.398 25.2802 151.727 25.3126 152.027 25.4367C152.326 25.5608 152.582 25.7708 152.762 26.0404C152.942 26.31 153.038 26.6269 153.038 26.951C153.038 27.3858 152.866 27.8027 152.558 28.1101C152.251 28.4175 151.834 28.5902 151.399 28.5902Z" fill="#2D2D2D"/>
</svg>
